<svg color-interpolation="auto" height="420" stroke="#000" stroke-linecap="square" stroke-miterlimit="10" width="560" xmlns="http://www.w3.org/2000/svg" xmlns:xlink="http://www.w3.org/1999/xlink"><clipPath id="a"><path color-interpolation="auto" d="m0 0h560v420h-560z"/></clipPath><g stroke="none"><path clip-path="url(#a)" d="m0 0h560v420h-560z" fill="#fff"/><path d="m0 0h560v420h-560z" style="fill:#fff;text-rendering:optimizeSpeed;color-rendering:optimizeSpeed;image-rendering:optimizeSpeed;shape-rendering:crispEdges;color-interpolation:sRGB"/><g color-interpolation="linearRGB" color-rendering="optimizeQuality" image-rendering="optimizeQuality" text-rendering="geometricPrecision"><g fill="#66c2a5" fill-opacity=".702" stroke-opacity=".702"><circle cx="329.6964" cy="291.4486" r="7.0711"/><circle cx="334.3664" cy="287.5607" r="7.0711"/><circle cx="337.2306" cy="275.7133" r="7.0711"/><circle cx="346.0719" cy="271.1448" r="7.0711"/><circle cx="356.9576" cy="262.8659" r="7.0711"/><circle cx="363.1189" cy="254.0217" r="7.0711"/><circle cx="367.2655" cy="244.6983" r="7.0711"/><circle cx="375.595" cy="236.2856" r="7.0711"/><circle cx="384.2798" cy="231.0356" r="7.0711"/><circle cx="393.5029" cy="222.4521" r="7.0711"/><circle cx="397.4854" cy="215.1973" r="7.0711"/><circle cx="409.3924" cy="212.8585" r="7.0711"/><circle cx="412.1665" cy="200.2519" r="7.0711"/><circle cx="423.6587" cy="194.7498" r="7.0711"/><circle cx="433.3875" cy="185.1445" r="7.0711"/><circle cx="433.8216" cy="183.7381" r="7.0711"/><circle cx="443.9294" cy="171.0479" r="7.0711"/><circle cx="450.9081" cy="164.1838" r="7.0711"/><circle cx="458.7792" cy="156.8411" r="7.0711"/><circle cx="468.244" cy="150.3001" r="7.0711"/><circle cx="476.5168" cy="139.2028" r="7.0711"/><circle cx="482.0151" cy="134.6475" r="7.0711"/><circle cx="490.3739" cy="129.1767" r="7.0711"/><circle cx="496.9981" cy="119.9082" r="7.0711"/><circle cx="505.2544" cy="114.2595" r="7.0711"/><g fill="#fc8d62"><circle cx="324.643" cy="111.8995" r="7.0711"/><circle cx="332.4466" cy="121.6609" r="7.0711"/><circle cx="341.3087" cy="127.2328" r="7.0711"/><circle cx="348.9486" cy="135.718" r="7.0711"/><circle cx="353.4079" cy="142.2045" r="7.0711"/><circle cx="360.6507" cy="152.1913" r="7.0711"/><circle cx="374.7232" cy="158.4141" r="7.0711"/><circle cx="376.0346" cy="163.7477" r="7.0711"/><circle cx="386.0653" cy="174.8177" r="7.0711"/><circle cx="391.8786" cy="183.3786" r="7.0711"/><circle cx="402.3219" cy="186.3699" r="7.0711"/><circle cx="407.0334" cy="196.6496" r="7.0711"/><circle cx="413.3852" cy="201.9647" r="7.0711"/><circle cx="425.6909" cy="209.4717" r="7.0711"/><circle cx="428.494" cy="217.7945" r="7.0711"/><circle cx="438.9331" cy="230.3325" r="7.0711"/><circle cx="444.3202" cy="234.2469" r="7.0711"/><circle cx="453.2835" cy="237.658" r="7.0711"/><circle cx="460.2497" cy="245.9305" r="7.0711"/><circle cx="467.8165" cy="254.211" r="7.0711"/><circle cx="473.3652" cy="263.6763" r="7.0711"/><circle cx="480.9642" cy="270.2028" r="7.0711"/><circle cx="487.7503" cy="277.2607" r="7.0711"/><circle cx="497.7871" cy="286.3493" r="7.0711"/><circle cx="507" cy="294.4319" r="7.0711"/></g></g><circle cx="252.1048" cy="201.3908" fill="#8da0cb" fill-opacity=".8" r="3.5355"/><path d="m0-3.4855c1.925 0 3.4855 1.5605 3.4855 3.4855 0 1.925-1.5605 3.4855-3.4855 3.4855s-3.4855-1.5605-3.4855-3.4855 1.5605-3.4855 3.4855-3.4855zm0-.1c-1.9802 0-3.5855 1.6053-3.5855 3.5855s1.6053 3.5855 3.5855 3.5855 3.5855-1.6053 3.5855-3.5855c0-1.9802-1.6053-3.5855-3.5855-3.5855z" fill="#333" transform="translate(252.1048 201.3908)"/><circle cx="251.4649" cy="188.9865" fill="#8da0cb" fill-opacity=".8" r="3.5355"/><path d="m0-3.4855c1.925 0 3.4855 1.5605 3.4855 3.4855 0 1.925-1.5605 3.4855-3.4855 3.4855s-3.4855-1.5605-3.4855-3.4855 1.5605-3.4855 3.4855-3.4855zm0-.1c-1.9802 0-3.5855 1.6053-3.5855 3.5855s1.6053 3.5855 3.5855 3.5855 3.5855-1.6053 3.5855-3.5855c0-1.9802-1.6053-3.5855-3.5855-3.5855z" fill="#333" transform="translate(251.4649 188.9865)"/><circle cx="252.5515" cy="182.4519" fill="#8da0cb" fill-opacity=".8" r="3.5355"/><path d="m0-3.4855c1.925 0 3.4855 1.5605 3.4855 3.4855 0 1.925-1.5605 3.4855-3.4855 3.4855s-3.4855-1.5605-3.4855-3.4855 1.5605-3.4855 3.4855-3.4855zm0-.1c-1.9802 0-3.5855 1.6053-3.5855 3.5855s1.6053 3.5855 3.5855 3.5855 3.5855-1.6053 3.5855-3.5855c0-1.9802-1.6053-3.5855-3.5855-3.5855z" fill="#333" transform="translate(252.5515 182.4519)"/><circle cx="247.4467" cy="171.1228" fill="#8da0cb" fill-opacity=".8" r="3.5355"/><path d="m0-3.4855c1.925 0 3.4855 1.5605 3.4855 3.4855 0 1.925-1.5605 3.4855-3.4855 3.4855s-3.4855-1.5605-3.4855-3.4855 1.5605-3.4855 3.4855-3.4855zm0-.1c-1.9802 0-3.5855 1.6053-3.5855 3.5855s1.6053 3.5855 3.5855 3.5855 3.5855-1.6053 3.5855-3.5855c0-1.9802-1.6053-3.5855-3.5855-3.5855z" fill="#333" transform="translate(247.4467 171.1228)"/><circle cx="241.8459" cy="158.0853" fill="#8da0cb" fill-opacity=".8" r="3.5355"/><path d="m0-3.4855c1.925 0 3.4855 1.5605 3.4855 3.4855 0 1.925-1.5605 3.4855-3.4855 3.4855s-3.4855-1.5605-3.4855-3.4855 1.5605-3.4855 3.4855-3.4855zm0-.1c-1.9802 0-3.5855 1.6053-3.5855 3.5855s1.6053 3.5855 3.5855 3.5855 3.5855-1.6053 3.5855-3.5855c0-1.9802-1.6053-3.5855-3.5855-3.5855z" fill="#333" transform="translate(241.8459 158.0853)"/><circle cx="233.293" cy="148.5468" fill="#8da0cb" fill-opacity=".8" r="3.5355"/><path d="m0-3.4855c1.925 0 3.4855 1.5605 3.4855 3.4855 0 1.925-1.5605 3.4855-3.4855 3.4855s-3.4855-1.5605-3.4855-3.4855 1.5605-3.4855 3.4855-3.4855zm0-.1c-1.9802 0-3.5855 1.6053-3.5855 3.5855s1.6053 3.5855 3.5855 3.5855 3.5855-1.6053 3.5855-3.5855c0-1.9802-1.6053-3.5855-3.5855-3.5855z" fill="#333" transform="translate(233.293 148.5468)"/><circle cx="228.3641" cy="140.3845" fill="#8da0cb" fill-opacity=".8" r="3.5355"/><path d="m0-3.4855c1.925 0 3.4855 1.5605 3.4855 3.4855 0 1.925-1.5605 3.4855-3.4855 3.4855s-3.4855-1.5605-3.4855-3.4855 1.5605-3.4855 3.4855-3.4855zm0-.1c-1.9802 0-3.5855 1.6053-3.5855 3.5855s1.6053 3.5855 3.5855 3.5855 3.5855-1.6053 3.5855-3.5855c0-1.9802-1.6053-3.5855-3.5855-3.5855z" fill="#333" transform="translate(228.3641 140.3845)"/><circle cx="217.8432" cy="133.8602" fill="#8da0cb" fill-opacity=".8" r="3.5355"/><path d="m0-3.4855c1.925 0 3.4855 1.5605 3.4855 3.4855 0 1.925-1.5605 3.4855-3.4855 3.4855s-3.4855-1.5605-3.4855-3.4855 1.5605-3.4855 3.4855-3.4855zm0-.1c-1.9802 0-3.5855 1.6053-3.5855 3.5855s1.6053 3.5855 3.5855 3.5855 3.5855-1.6053 3.5855-3.5855c0-1.9802-1.6053-3.5855-3.5855-3.5855z" fill="#333" transform="translate(217.8432 133.8602)"/><circle cx="210.3122" cy="125.8549" fill="#8da0cb" fill-opacity=".8" r="3.5355"/><path d="m0-3.4855c1.925 0 3.4855 1.5605 3.4855 3.4855 0 1.925-1.5605 3.4855-3.4855 3.4855s-3.4855-1.5605-3.4855-3.4855 1.5605-3.4855 3.4855-3.4855zm0-.1c-1.9802 0-3.5855 1.6053-3.5855 3.5855s1.6053 3.5855 3.5855 3.5855 3.5855-1.6053 3.5855-3.5855c0-1.9802-1.6053-3.5855-3.5855-3.5855z" fill="#333" transform="translate(210.3122 125.8549)"/><circle cx="199.8576" cy="121.437" fill="#8da0cb" fill-opacity=".8" r="3.5355"/><path d="m0-3.4855c1.925 0 3.4855 1.5605 3.4855 3.4855 0 1.925-1.5605 3.4855-3.4855 3.4855s-3.4855-1.5605-3.4855-3.4855 1.5605-3.4855 3.4855-3.4855zm0-.1c-1.9802 0-3.5855 1.6053-3.5855 3.5855s1.6053 3.5855 3.5855 3.5855 3.5855-1.6053 3.5855-3.5855c0-1.9802-1.6053-3.5855-3.5855-3.5855z" fill="#333" transform="translate(199.8576 121.437)"/><circle cx="190.7805" cy="115.2475" fill="#8da0cb" fill-opacity=".8" r="3.5355"/><path d="m0-3.4855c1.925 0 3.4855 1.5605 3.4855 3.4855 0 1.925-1.5605 3.4855-3.4855 3.4855s-3.4855-1.5605-3.4855-3.4855 1.5605-3.4855 3.4855-3.4855zm0-.1c-1.9802 0-3.5855 1.6053-3.5855 3.5855s1.6053 3.5855 3.5855 3.5855 3.5855-1.6053 3.5855-3.5855c0-1.9802-1.6053-3.5855-3.5855-3.5855z" fill="#333" transform="translate(190.7805 115.2475)"/><circle cx="177.9576" cy="111.0681" fill="#8da0cb" fill-opacity=".8" r="3.5355"/><path d="m0-3.4855c1.925 0 3.4855 1.5605 3.4855 3.4855 0 1.925-1.5605 3.4855-3.4855 3.4855s-3.4855-1.5605-3.4855-3.4855 1.5605-3.4855 3.4855-3.4855zm0-.1c-1.9802 0-3.5855 1.6053-3.5855 3.5855s1.6053 3.5855 3.5855 3.5855 3.5855-1.6053 3.5855-3.5855c0-1.9802-1.6053-3.5855-3.5855-3.5855z" fill="#333" transform="translate(177.9576 111.0681)"/><circle cx="166.6732" cy="112.1641" fill="#8da0cb" fill-opacity=".8" r="3.5355"/><path d="m0-3.4855c1.925 0 3.4855 1.5605 3.4855 3.4855 0 1.925-1.5605 3.4855-3.4855 3.4855s-3.4855-1.5605-3.4855-3.4855 1.5605-3.4855 3.4855-3.4855zm0-.1c-1.9802 0-3.5855 1.6053-3.5855 3.5855s1.6053 3.5855 3.5855 3.5855 3.5855-1.6053 3.5855-3.5855c0-1.9802-1.6053-3.5855-3.5855-3.5855z" fill="#333" transform="translate(166.6732 112.1641)"/><circle cx="155.9683" cy="112.2892" fill="#8da0cb" fill-opacity=".8" r="3.5355"/><path d="m0-3.4855c1.925 0 3.4855 1.5605 3.4855 3.4855 0 1.925-1.5605 3.4855-3.4855 3.4855s-3.4855-1.5605-3.4855-3.4855 1.5605-3.4855 3.4855-3.4855zm0-.1c-1.9802 0-3.5855 1.6053-3.5855 3.5855s1.6053 3.5855 3.5855 3.5855 3.5855-1.6053 3.5855-3.5855c0-1.9802-1.6053-3.5855-3.5855-3.5855z" fill="#333" transform="translate(155.9683 112.2892)"/><circle cx="143.8756" cy="112.7193" fill="#8da0cb" fill-opacity=".8" r="3.5355"/><path d="m0-3.4855c1.925 0 3.4855 1.5605 3.4855 3.4855 0 1.925-1.5605 3.4855-3.4855 3.4855s-3.4855-1.5605-3.4855-3.4855 1.5605-3.4855 3.4855-3.4855zm0-.1c-1.9802 0-3.5855 1.6053-3.5855 3.5855s1.6053 3.5855 3.5855 3.5855 3.5855-1.6053 3.5855-3.5855c0-1.9802-1.6053-3.5855-3.5855-3.5855z" fill="#333" transform="translate(143.8756 112.7193)"/><circle cx="134.2794" cy="117.9442" fill="#8da0cb" fill-opacity=".8" r="3.5355"/><path d="m0-3.4855c1.925 0 3.4855 1.5605 3.4855 3.4855 0 1.925-1.5605 3.4855-3.4855 3.4855s-3.4855-1.5605-3.4855-3.4855 1.5605-3.4855 3.4855-3.4855zm0-.1c-1.9802 0-3.5855 1.6053-3.5855 3.5855s1.6053 3.5855 3.5855 3.5855 3.5855-1.6053 3.5855-3.5855c0-1.9802-1.6053-3.5855-3.5855-3.5855z" fill="#333" transform="translate(134.2794 117.9442)"/><circle cx="123.8915" cy="125.9332" fill="#8da0cb" fill-opacity=".8" r="3.5355"/><path d="m0-3.4855c1.925 0 3.4855 1.5605 3.4855 3.4855 0 1.925-1.5605 3.4855-3.4855 3.4855s-3.4855-1.5605-3.4855-3.4855 1.5605-3.4855 3.4855-3.4855zm0-.1c-1.9802 0-3.5855 1.6053-3.5855 3.5855s1.6053 3.5855 3.5855 3.5855 3.5855-1.6053 3.5855-3.5855c0-1.9802-1.6053-3.5855-3.5855-3.5855z" fill="#333" transform="translate(123.8915 125.9332)"/><circle cx="110.1873" cy="127.5224" fill="#8da0cb" fill-opacity=".8" r="3.5355"/><path d="m0-3.4855c1.925 0 3.4855 1.5605 3.4855 3.4855 0 1.925-1.5605 3.4855-3.4855 3.4855s-3.4855-1.5605-3.4855-3.4855 1.5605-3.4855 3.4855-3.4855zm0-.1c-1.9802 0-3.5855 1.6053-3.5855 3.5855s1.6053 3.5855 3.5855 3.5855 3.5855-1.6053 3.5855-3.5855c0-1.9802-1.6053-3.5855-3.5855-3.5855z" fill="#333" transform="translate(110.1873 127.5224)"/><circle cx="103.3836" cy="135.1078" fill="#8da0cb" fill-opacity=".8" r="3.5355"/><path d="m0-3.4855c1.925 0 3.4855 1.5605 3.4855 3.4855 0 1.925-1.5605 3.4855-3.4855 3.4855s-3.4855-1.5605-3.4855-3.4855 1.5605-3.4855 3.4855-3.4855zm0-.1c-1.9802 0-3.5855 1.6053-3.5855 3.5855s1.6053 3.5855 3.5855 3.5855 3.5855-1.6053 3.5855-3.5855c0-1.9802-1.6053-3.5855-3.5855-3.5855z" fill="#333" transform="translate(103.3836 135.1078)"/><circle cx="98.3366" cy="141.2579" fill="#8da0cb" fill-opacity=".8" r="3.5355"/><path d="m0-3.4855c1.925 0 3.4855 1.5605 3.4855 3.4855 0 1.925-1.5605 3.4855-3.4855 3.4855s-3.4855-1.5605-3.4855-3.4855 1.5605-3.4855 3.4855-3.4855zm0-.1c-1.9802 0-3.5855 1.6053-3.5855 3.5855s1.6053 3.5855 3.5855 3.5855 3.5855-1.6053 3.5855-3.5855c0-1.9802-1.6053-3.5855-3.5855-3.5855z" fill="#333" transform="translate(98.3366 141.2579)"/><circle cx="87.1943" cy="150.0349" fill="#8da0cb" fill-opacity=".8" r="3.5355"/><path d="m0-3.4855c1.925 0 3.4855 1.5605 3.4855 3.4855 0 1.925-1.5605 3.4855-3.4855 3.4855s-3.4855-1.5605-3.4855-3.4855 1.5605-3.4855 3.4855-3.4855zm0-.1c-1.9802 0-3.5855 1.6053-3.5855 3.5855s1.6053 3.5855 3.5855 3.5855 3.5855-1.6053 3.5855-3.5855c0-1.9802-1.6053-3.5855-3.5855-3.5855z" fill="#333" transform="translate(87.1943 150.0349)"/><circle cx="81.9818" cy="163.329" fill="#8da0cb" fill-opacity=".8" r="3.5355"/><path d="m0-3.4855c1.925 0 3.4855 1.5605 3.4855 3.4855 0 1.925-1.5605 3.4855-3.4855 3.4855s-3.4855-1.5605-3.4855-3.4855 1.5605-3.4855 3.4855-3.4855zm0-.1c-1.9802 0-3.5855 1.6053-3.5855 3.5855s1.6053 3.5855 3.5855 3.5855 3.5855-1.6053 3.5855-3.5855c0-1.9802-1.6053-3.5855-3.5855-3.5855z" fill="#333" transform="translate(81.9818 163.329)"/><circle cx="75.4132" cy="177.2058" fill="#8da0cb" fill-opacity=".8" r="3.5355"/><path d="m0-3.4855c1.925 0 3.4855 1.5605 3.4855 3.4855 0 1.925-1.5605 3.4855-3.4855 3.4855s-3.4855-1.5605-3.4855-3.4855 1.5605-3.4855 3.4855-3.4855zm0-.1c-1.9802 0-3.5855 1.6053-3.5855 3.5855s1.6053 3.5855 3.5855 3.5855 3.5855-1.6053 3.5855-3.5855c0-1.9802-1.6053-3.5855-3.5855-3.5855z" fill="#333" transform="translate(75.4132 177.2058)"/><circle cx="73.3943" cy="185.6228" fill="#8da0cb" fill-opacity=".8" r="3.5355"/><path d="m0-3.4855c1.925 0 3.4855 1.5605 3.4855 3.4855 0 1.925-1.5605 3.4855-3.4855 3.4855s-3.4855-1.5605-3.4855-3.4855 1.5605-3.4855 3.4855-3.4855zm0-.1c-1.9802 0-3.5855 1.6053-3.5855 3.5855s1.6053 3.5855 3.5855 3.5855 3.5855-1.6053 3.5855-3.5855c0-1.9802-1.6053-3.5855-3.5855-3.5855z" fill="#333" transform="translate(73.3943 185.6228)"/><circle cx="76.4079" cy="194.6282" fill="#8da0cb" fill-opacity=".8" r="3.5355"/><path d="m0-3.4855c1.925 0 3.4855 1.5605 3.4855 3.4855 0 1.925-1.5605 3.4855-3.4855 3.4855s-3.4855-1.5605-3.4855-3.4855 1.5605-3.4855 3.4855-3.4855zm0-.1c-1.9802 0-3.5855 1.6053-3.5855 3.5855s1.6053 3.5855 3.5855 3.5855 3.5855-1.6053 3.5855-3.5855c0-1.9802-1.6053-3.5855-3.5855-3.5855z" fill="#333" transform="translate(76.4079 194.6282)"/><circle cx="73.0518" cy="210.1962" fill="#8da0cb" fill-opacity=".8" r="3.5355"/><path d="m0-3.4855c1.925 0 3.4855 1.5605 3.4855 3.4855 0 1.925-1.5605 3.4855-3.4855 3.4855s-3.4855-1.5605-3.4855-3.4855 1.5605-3.4855 3.4855-3.4855zm0-.1c-1.9802 0-3.5855 1.6053-3.5855 3.5855s1.6053 3.5855 3.5855 3.5855 3.5855-1.6053 3.5855-3.5855c0-1.9802-1.6053-3.5855-3.5855-3.5855z" fill="#333" transform="translate(73.0518 210.1962)"/><circle cx="73" cy="217.4106" fill="#8da0cb" fill-opacity=".8" r="3.5355"/><path d="m0-3.4855c1.925 0 3.4855 1.5605 3.4855 3.4855 0 1.925-1.5605 3.4855-3.4855 3.4855s-3.4855-1.5605-3.4855-3.4855 1.5605-3.4855 3.4855-3.4855zm0-.1c-1.9802 0-3.5855 1.6053-3.5855 3.5855s1.6053 3.5855 3.5855 3.5855 3.5855-1.6053 3.5855-3.5855c0-1.9802-1.6053-3.5855-3.5855-3.5855z" fill="#333" transform="translate(73 217.4106)"/><circle cx="80.6013" cy="231.1501" fill="#8da0cb" fill-opacity=".8" r="3.5355"/><path d="m0-3.4855c1.925 0 3.4855 1.5605 3.4855 3.4855 0 1.925-1.5605 3.4855-3.4855 3.4855s-3.4855-1.5605-3.4855-3.4855 1.5605-3.4855 3.4855-3.4855zm0-.1c-1.9802 0-3.5855 1.6053-3.5855 3.5855s1.6053 3.5855 3.5855 3.5855 3.5855-1.6053 3.5855-3.5855c0-1.9802-1.6053-3.5855-3.5855-3.5855z" fill="#333" transform="translate(80.6013 231.1501)"/><circle cx="82.1709" cy="240.9663" fill="#8da0cb" fill-opacity=".8" r="3.5355"/><path d="m0-3.4855c1.925 0 3.4855 1.5605 3.4855 3.4855 0 1.925-1.5605 3.4855-3.4855 3.4855s-3.4855-1.5605-3.4855-3.4855 1.5605-3.4855 3.4855-3.4855zm0-.1c-1.9802 0-3.5855 1.6053-3.5855 3.5855s1.6053 3.5855 3.5855 3.5855 3.5855-1.6053 3.5855-3.5855c0-1.9802-1.6053-3.5855-3.5855-3.5855z" fill="#333" transform="translate(82.1709 240.9663)"/><circle cx="89.2306" cy="249.3923" fill="#8da0cb" fill-opacity=".8" r="3.5355"/><path d="m0-3.4855c1.925 0 3.4855 1.5605 3.4855 3.4855 0 1.925-1.5605 3.4855-3.4855 3.4855s-3.4855-1.5605-3.4855-3.4855 1.5605-3.4855 3.4855-3.4855zm0-.1c-1.9802 0-3.5855 1.6053-3.5855 3.5855s1.6053 3.5855 3.5855 3.5855 3.5855-1.6053 3.5855-3.5855c0-1.9802-1.6053-3.5855-3.5855-3.5855z" fill="#333" transform="translate(89.2306 249.3923)"/><circle cx="94.456" cy="262.379" fill="#8da0cb" fill-opacity=".8" r="3.5355"/><path d="m0-3.4855c1.925 0 3.4855 1.5605 3.4855 3.4855 0 1.925-1.5605 3.4855-3.4855 3.4855s-3.4855-1.5605-3.4855-3.4855 1.5605-3.4855 3.4855-3.4855zm0-.1c-1.9802 0-3.5855 1.6053-3.5855 3.5855s1.6053 3.5855 3.5855 3.5855 3.5855-1.6053 3.5855-3.5855c0-1.9802-1.6053-3.5855-3.5855-3.5855z" fill="#333" transform="translate(94.456 262.379)"/><circle cx="104.3327" cy="268.9276" fill="#8da0cb" fill-opacity=".8" r="3.5355"/><path d="m0-3.4855c1.925 0 3.4855 1.5605 3.4855 3.4855 0 1.925-1.5605 3.4855-3.4855 3.4855s-3.4855-1.5605-3.4855-3.4855 1.5605-3.4855 3.4855-3.4855zm0-.1c-1.9802 0-3.5855 1.6053-3.5855 3.5855s1.6053 3.5855 3.5855 3.5855 3.5855-1.6053 3.5855-3.5855c0-1.9802-1.6053-3.5855-3.5855-3.5855z" fill="#333" transform="translate(104.3327 268.9276)"/><circle cx="113.5514" cy="275.1385" fill="#8da0cb" fill-opacity=".8" r="3.5355"/><path d="m0-3.4855c1.925 0 3.4855 1.5605 3.4855 3.4855 0 1.925-1.5605 3.4855-3.4855 3.4855s-3.4855-1.5605-3.4855-3.4855 1.5605-3.4855 3.4855-3.4855zm0-.1c-1.9802 0-3.5855 1.6053-3.5855 3.5855s1.6053 3.5855 3.5855 3.5855 3.5855-1.6053 3.5855-3.5855c0-1.9802-1.6053-3.5855-3.5855-3.5855z" fill="#333" transform="translate(113.5514 275.1385)"/><circle cx="121.7852" cy="281.9689" fill="#8da0cb" fill-opacity=".8" r="3.5355"/><path d="m0-3.4855c1.925 0 3.4855 1.5605 3.4855 3.4855 0 1.925-1.5605 3.4855-3.4855 3.4855s-3.4855-1.5605-3.4855-3.4855 1.5605-3.4855 3.4855-3.4855zm0-.1c-1.9802 0-3.5855 1.6053-3.5855 3.5855s1.6053 3.5855 3.5855 3.5855 3.5855-1.6053 3.5855-3.5855c0-1.9802-1.6053-3.5855-3.5855-3.5855z" fill="#333" transform="translate(121.7852 281.9689)"/><circle cx="131.5512" cy="284.3122" fill="#8da0cb" fill-opacity=".8" r="3.5355"/><path d="m0-3.4855c1.925 0 3.4855 1.5605 3.4855 3.4855 0 1.925-1.5605 3.4855-3.4855 3.4855s-3.4855-1.5605-3.4855-3.4855 1.5605-3.4855 3.4855-3.4855zm0-.1c-1.9802 0-3.5855 1.6053-3.5855 3.5855s1.6053 3.5855 3.5855 3.5855 3.5855-1.6053 3.5855-3.5855c0-1.9802-1.6053-3.5855-3.5855-3.5855z" fill="#333" transform="translate(131.5512 284.3122)"/><circle cx="141.561" cy="290.787" fill="#8da0cb" fill-opacity=".8" r="3.5355"/><path d="m0-3.4855c1.925 0 3.4855 1.5605 3.4855 3.4855 0 1.925-1.5605 3.4855-3.4855 3.4855s-3.4855-1.5605-3.4855-3.4855 1.5605-3.4855 3.4855-3.4855zm0-.1c-1.9802 0-3.5855 1.6053-3.5855 3.5855s1.6053 3.5855 3.5855 3.5855 3.5855-1.6053 3.5855-3.5855c0-1.9802-1.6053-3.5855-3.5855-3.5855z" fill="#333" transform="translate(141.561 290.787)"/><circle cx="155.3338" cy="294.1405" fill="#8da0cb" fill-opacity=".8" r="3.5355"/><path d="m0-3.4855c1.925 0 3.4855 1.5605 3.4855 3.4855 0 1.925-1.5605 3.4855-3.4855 3.4855s-3.4855-1.5605-3.4855-3.4855 1.5605-3.4855 3.4855-3.4855zm0-.1c-1.9802 0-3.5855 1.6053-3.5855 3.5855s1.6053 3.5855 3.5855 3.5855 3.5855-1.6053 3.5855-3.5855c0-1.9802-1.6053-3.5855-3.5855-3.5855z" fill="#333" transform="translate(155.3338 294.1405)"/><circle cx="166.3044" cy="292.7924" fill="#8da0cb" fill-opacity=".8" r="3.5355"/><path d="m0-3.4855c1.925 0 3.4855 1.5605 3.4855 3.4855 0 1.925-1.5605 3.4855-3.4855 3.4855s-3.4855-1.5605-3.4855-3.4855 1.5605-3.4855 3.4855-3.4855zm0-.1c-1.9802 0-3.5855 1.6053-3.5855 3.5855s1.6053 3.5855 3.5855 3.5855 3.5855-1.6053 3.5855-3.5855c0-1.9802-1.6053-3.5855-3.5855-3.5855z" fill="#333" transform="translate(166.3044 292.7924)"/><circle cx="175.166" cy="290.5173" fill="#8da0cb" fill-opacity=".8" r="3.5355"/><path d="m0-3.4855c1.925 0 3.4855 1.5605 3.4855 3.4855 0 1.925-1.5605 3.4855-3.4855 3.4855s-3.4855-1.5605-3.4855-3.4855 1.5605-3.4855 3.4855-3.4855zm0-.1c-1.9802 0-3.5855 1.6053-3.5855 3.5855s1.6053 3.5855 3.5855 3.5855 3.5855-1.6053 3.5855-3.5855c0-1.9802-1.6053-3.5855-3.5855-3.5855z" fill="#333" transform="translate(175.166 290.5173)"/><circle cx="189.5456" cy="287.9507" fill="#8da0cb" fill-opacity=".8" r="3.5355"/><path d="m0-3.4855c1.925 0 3.4855 1.5605 3.4855 3.4855 0 1.925-1.5605 3.4855-3.4855 3.4855s-3.4855-1.5605-3.4855-3.4855 1.5605-3.4855 3.4855-3.4855zm0-.1c-1.9802 0-3.5855 1.6053-3.5855 3.5855s1.6053 3.5855 3.5855 3.5855 3.5855-1.6053 3.5855-3.5855c0-1.9802-1.6053-3.5855-3.5855-3.5855z" fill="#333" transform="translate(189.5456 287.9507)"/><circle cx="202.1273" cy="283.6095" fill="#8da0cb" fill-opacity=".8" r="3.5355"/><path d="m0-3.4855c1.925 0 3.4855 1.5605 3.4855 3.4855 0 1.925-1.5605 3.4855-3.4855 3.4855s-3.4855-1.5605-3.4855-3.4855 1.5605-3.4855 3.4855-3.4855zm0-.1c-1.9802 0-3.5855 1.6053-3.5855 3.5855s1.6053 3.5855 3.5855 3.5855 3.5855-1.6053 3.5855-3.5855c0-1.9802-1.6053-3.5855-3.5855-3.5855z" fill="#333" transform="translate(202.1273 283.6095)"/><circle cx="209.1786" cy="279.7246" fill="#8da0cb" fill-opacity=".8" r="3.5355"/><path d="m0-3.4855c1.925 0 3.4855 1.5605 3.4855 3.4855 0 1.925-1.5605 3.4855-3.4855 3.4855s-3.4855-1.5605-3.4855-3.4855 1.5605-3.4855 3.4855-3.4855zm0-.1c-1.9802 0-3.5855 1.6053-3.5855 3.5855s1.6053 3.5855 3.5855 3.5855 3.5855-1.6053 3.5855-3.5855c0-1.9802-1.6053-3.5855-3.5855-3.5855z" fill="#333" transform="translate(209.1786 279.7246)"/><circle cx="218.6915" cy="271.0833" fill="#8da0cb" fill-opacity=".8" r="3.5355"/><path d="m0-3.4855c1.925 0 3.4855 1.5605 3.4855 3.4855 0 1.925-1.5605 3.4855-3.4855 3.4855s-3.4855-1.5605-3.4855-3.4855 1.5605-3.4855 3.4855-3.4855zm0-.1c-1.9802 0-3.5855 1.6053-3.5855 3.5855s1.6053 3.5855 3.5855 3.5855 3.5855-1.6053 3.5855-3.5855c0-1.9802-1.6053-3.5855-3.5855-3.5855z" fill="#333" transform="translate(218.6915 271.0833)"/><circle cx="227.6257" cy="265.3296" fill="#8da0cb" fill-opacity=".8" r="3.5355"/><path d="m0-3.4855c1.925 0 3.4855 1.5605 3.4855 3.4855 0 1.925-1.5605 3.4855-3.4855 3.4855s-3.4855-1.5605-3.4855-3.4855 1.5605-3.4855 3.4855-3.4855zm0-.1c-1.9802 0-3.5855 1.6053-3.5855 3.5855s1.6053 3.5855 3.5855 3.5855 3.5855-1.6053 3.5855-3.5855c0-1.9802-1.6053-3.5855-3.5855-3.5855z" fill="#333" transform="translate(227.6257 265.3296)"/><circle cx="236.1578" cy="254.4055" fill="#8da0cb" fill-opacity=".8" r="3.5355"/><path d="m0-3.4855c1.925 0 3.4855 1.5605 3.4855 3.4855 0 1.925-1.5605 3.4855-3.4855 3.4855s-3.4855-1.5605-3.4855-3.4855 1.5605-3.4855 3.4855-3.4855zm0-.1c-1.9802 0-3.5855 1.6053-3.5855 3.5855s1.6053 3.5855 3.5855 3.5855 3.5855-1.6053 3.5855-3.5855c0-1.9802-1.6053-3.5855-3.5855-3.5855z" fill="#333" transform="translate(236.1578 254.4055)"/><circle cx="238.3222" cy="247.5928" fill="#8da0cb" fill-opacity=".8" r="3.5355"/><path d="m0-3.4855c1.925 0 3.4855 1.5605 3.4855 3.4855 0 1.925-1.5605 3.4855-3.4855 3.4855s-3.4855-1.5605-3.4855-3.4855 1.5605-3.4855 3.4855-3.4855zm0-.1c-1.9802 0-3.5855 1.6053-3.5855 3.5855s1.6053 3.5855 3.5855 3.5855 3.5855-1.6053 3.5855-3.5855c0-1.9802-1.6053-3.5855-3.5855-3.5855z" fill="#333" transform="translate(238.3222 247.5928)"/><circle cx="247.3501" cy="234.8259" fill="#8da0cb" fill-opacity=".8" r="3.5355"/><path d="m0-3.4855c1.925 0 3.4855 1.5605 3.4855 3.4855 0 1.925-1.5605 3.4855-3.4855 3.4855s-3.4855-1.5605-3.4855-3.4855 1.5605-3.4855 3.4855-3.4855zm0-.1c-1.9802 0-3.5855 1.6053-3.5855 3.5855s1.6053 3.5855 3.5855 3.5855 3.5855-1.6053 3.5855-3.5855c0-1.9802-1.6053-3.5855-3.5855-3.5855z" fill="#333" transform="translate(247.3501 234.8259)"/><circle cx="250.3293" cy="226.0821" fill="#8da0cb" fill-opacity=".8" r="3.5355"/><path d="m0-3.4855c1.925 0 3.4855 1.5605 3.4855 3.4855 0 1.925-1.5605 3.4855-3.4855 3.4855s-3.4855-1.5605-3.4855-3.4855 1.5605-3.4855 3.4855-3.4855zm0-.1c-1.9802 0-3.5855 1.6053-3.5855 3.5855s1.6053 3.5855 3.5855 3.5855 3.5855-1.6053 3.5855-3.5855c0-1.9802-1.6053-3.5855-3.5855-3.5855z" fill="#333" transform="translate(250.3293 226.0821)"/><circle cx="252.6964" cy="216.4516" fill="#8da0cb" fill-opacity=".8" r="3.5355"/><path d="m0-3.4855c1.925 0 3.4855 1.5605 3.4855 3.4855 0 1.925-1.5605 3.4855-3.4855 3.4855s-3.4855-1.5605-3.4855-3.4855 1.5605-3.4855 3.4855-3.4855zm0-.1c-1.9802 0-3.5855 1.6053-3.5855 3.5855s1.6053 3.5855 3.5855 3.5855 3.5855-1.6053 3.5855-3.5855c0-1.9802-1.6053-3.5855-3.5855-3.5855z" fill="#333" transform="translate(252.6964 216.4516)"/><circle cx="251.4436" cy="201.3838" fill="#8da0cb" fill-opacity=".8" r="3.5355"/><path d="m0-3.4855c1.925 0 3.4855 1.5605 3.4855 3.4855 0 1.925-1.5605 3.4855-3.4855 3.4855s-3.4855-1.5605-3.4855-3.4855 1.5605-3.4855 3.4855-3.4855zm0-.1c-1.9802 0-3.5855 1.6053-3.5855 3.5855s1.6053 3.5855 3.5855 3.5855 3.5855-1.6053 3.5855-3.5855c0-1.9802-1.6053-3.5855-3.5855-3.5855z" fill="#333" transform="translate(251.4436 201.3838)"/><circle cx="329.6964" cy="291.4486" fill="#66c2a5" r="5"/><path d="m0-4.25c2.3472 0 4.25 1.9028 4.25 4.25 0 2.3472-1.9028 4.25-4.25 4.25s-4.25-1.9028-4.25-4.25 1.9028-4.25 4.25-4.25zm0-1.5c-3.1756 0-5.75 2.5744-5.75 5.75s2.5744 5.75 5.75 5.75 5.75-2.5744 5.75-5.75c0-3.1756-2.5744-5.75-5.75-5.75z" transform="translate(329.6964 291.4486)"/><circle cx="334.3663" cy="287.5607" fill="#66c2a5" r="5"/><path d="m0-4.25c2.3472 0 4.25 1.9028 4.25 4.25 0 2.3472-1.9028 4.25-4.25 4.25s-4.25-1.9028-4.25-4.25 1.9028-4.25 4.25-4.25zm0-1.5c-3.1756 0-5.75 2.5744-5.75 5.75s2.5744 5.75 5.75 5.75 5.75-2.5744 5.75-5.75c0-3.1756-2.5744-5.75-5.75-5.75z" transform="translate(334.3663 287.5607)"/><circle cx="337.2306" cy="275.7133" fill="#66c2a5" r="5"/><path d="m0-4.25c2.3472 0 4.25 1.9028 4.25 4.25 0 2.3472-1.9028 4.25-4.25 4.25s-4.25-1.9028-4.25-4.25 1.9028-4.25 4.25-4.25zm0-1.5c-3.1756 0-5.75 2.5744-5.75 5.75s2.5744 5.75 5.75 5.75 5.75-2.5744 5.75-5.75c0-3.1756-2.5744-5.75-5.75-5.75z" transform="translate(337.2306 275.7133)"/><circle cx="346.0718" cy="271.1448" fill="#66c2a5" r="5"/><path d="m0-4.25c2.3472 0 4.25 1.9028 4.25 4.25 0 2.3472-1.9028 4.25-4.25 4.25s-4.25-1.9028-4.25-4.25 1.9028-4.25 4.25-4.25zm0-1.5c-3.1756 0-5.75 2.5744-5.75 5.75s2.5744 5.75 5.75 5.75 5.75-2.5744 5.75-5.75c0-3.1756-2.5744-5.75-5.75-5.75z" transform="translate(346.0718 271.1448)"/><circle cx="356.9575" cy="262.8659" fill="#66c2a5" r="5"/><path d="m0-4.25c2.3472 0 4.25 1.9028 4.25 4.25 0 2.3472-1.9028 4.25-4.25 4.25s-4.25-1.9028-4.25-4.25 1.9028-4.25 4.25-4.25zm0-1.5c-3.1756 0-5.75 2.5744-5.75 5.75s2.5744 5.75 5.75 5.75 5.75-2.5744 5.75-5.75c0-3.1756-2.5744-5.75-5.75-5.75z" transform="translate(356.9575 262.8659)"/><circle cx="363.1189" cy="254.0217" fill="#66c2a5" r="5"/><path d="m0-4.25c2.3472 0 4.25 1.9028 4.25 4.25 0 2.3472-1.9028 4.25-4.25 4.25s-4.25-1.9028-4.25-4.25 1.9028-4.25 4.25-4.25zm0-1.5c-3.1756 0-5.75 2.5744-5.75 5.75s2.5744 5.75 5.75 5.75 5.75-2.5744 5.75-5.75c0-3.1756-2.5744-5.75-5.75-5.75z" transform="translate(363.1189 254.0217)"/><circle cx="367.2654" cy="244.6983" fill="#66c2a5" r="5"/><path d="m0-4.25c2.3472 0 4.25 1.9028 4.25 4.25 0 2.3472-1.9028 4.25-4.25 4.25s-4.25-1.9028-4.25-4.25 1.9028-4.25 4.25-4.25zm0-1.5c-3.1756 0-5.75 2.5744-5.75 5.75s2.5744 5.75 5.75 5.75 5.75-2.5744 5.75-5.75c0-3.1756-2.5744-5.75-5.75-5.75z" transform="translate(367.2654 244.6983)"/><circle cx="375.595" cy="236.2856" fill="#66c2a5" r="5"/><path d="m0-4.25c2.3472 0 4.25 1.9028 4.25 4.25 0 2.3472-1.9028 4.25-4.25 4.25s-4.25-1.9028-4.25-4.25 1.9028-4.25 4.25-4.25zm0-1.5c-3.1756 0-5.75 2.5744-5.75 5.75s2.5744 5.75 5.75 5.75 5.75-2.5744 5.75-5.75c0-3.1756-2.5744-5.75-5.75-5.75z" transform="translate(375.595 236.2856)"/><circle cx="384.2798" cy="231.0356" fill="#66c2a5" r="5"/><path d="m0-4.25c2.3472 0 4.25 1.9028 4.25 4.25 0 2.3472-1.9028 4.25-4.25 4.25s-4.25-1.9028-4.25-4.25 1.9028-4.25 4.25-4.25zm0-1.5c-3.1756 0-5.75 2.5744-5.75 5.75s2.5744 5.75 5.75 5.75 5.75-2.5744 5.75-5.75c0-3.1756-2.5744-5.75-5.75-5.75z" transform="translate(384.2798 231.0356)"/><circle cx="393.5029" cy="222.4521" fill="#66c2a5" r="5"/><path d="m0-4.25c2.3472 0 4.25 1.9028 4.25 4.25 0 2.3472-1.9028 4.25-4.25 4.25s-4.25-1.9028-4.25-4.25 1.9028-4.25 4.25-4.25zm0-1.5c-3.1756 0-5.75 2.5744-5.75 5.75s2.5744 5.75 5.75 5.75 5.75-2.5744 5.75-5.75c0-3.1756-2.5744-5.75-5.75-5.75z" transform="translate(393.5029 222.4521)"/><circle cx="397.4854" cy="215.1973" fill="#66c2a5" r="5"/><path d="m0-4.25c2.3472 0 4.25 1.9028 4.25 4.25 0 2.3472-1.9028 4.25-4.25 4.25s-4.25-1.9028-4.25-4.25 1.9028-4.25 4.25-4.25zm0-1.5c-3.1756 0-5.75 2.5744-5.75 5.75s2.5744 5.75 5.75 5.75 5.75-2.5744 5.75-5.75c0-3.1756-2.5744-5.75-5.75-5.75z" transform="translate(397.4854 215.1973)"/><circle cx="409.3924" cy="212.8585" fill="#66c2a5" r="5"/><path d="m0-4.25c2.3472 0 4.25 1.9028 4.25 4.25 0 2.3472-1.9028 4.25-4.25 4.25s-4.25-1.9028-4.25-4.25 1.9028-4.25 4.25-4.25zm0-1.5c-3.1756 0-5.75 2.5744-5.75 5.75s2.5744 5.75 5.75 5.75 5.75-2.5744 5.75-5.75c0-3.1756-2.5744-5.75-5.75-5.75z" transform="translate(409.3924 212.8585)"/><circle cx="412.1665" cy="200.2519" fill="#66c2a5" r="5"/><path d="m0-4.25c2.3472 0 4.25 1.9028 4.25 4.25 0 2.3472-1.9028 4.25-4.25 4.25s-4.25-1.9028-4.25-4.25 1.9028-4.25 4.25-4.25zm0-1.5c-3.1756 0-5.75 2.5744-5.75 5.75s2.5744 5.75 5.75 5.75 5.75-2.5744 5.75-5.75c0-3.1756-2.5744-5.75-5.75-5.75z" transform="translate(412.1665 200.2519)"/><circle cx="423.6587" cy="194.7498" fill="#66c2a5" r="5"/><path d="m0-4.25c2.3472 0 4.25 1.9028 4.25 4.25 0 2.3472-1.9028 4.25-4.25 4.25s-4.25-1.9028-4.25-4.25 1.9028-4.25 4.25-4.25zm0-1.5c-3.1756 0-5.75 2.5744-5.75 5.75s2.5744 5.75 5.75 5.75 5.75-2.5744 5.75-5.75c0-3.1756-2.5744-5.75-5.75-5.75z" transform="translate(423.6587 194.7498)"/><circle cx="433.3875" cy="185.1445" fill="#66c2a5" r="5"/><path d="m0-4.25c2.3472 0 4.25 1.9028 4.25 4.25 0 2.3472-1.9028 4.25-4.25 4.25s-4.25-1.9028-4.25-4.25 1.9028-4.25 4.25-4.25zm0-1.5c-3.1756 0-5.75 2.5744-5.75 5.75s2.5744 5.75 5.75 5.75 5.75-2.5744 5.75-5.75c0-3.1756-2.5744-5.75-5.75-5.75z" transform="translate(433.3875 185.1445)"/><circle cx="433.8216" cy="183.7381" fill="#66c2a5" r="5"/><path d="m0-4.25c2.3472 0 4.25 1.9028 4.25 4.25 0 2.3472-1.9028 4.25-4.25 4.25s-4.25-1.9028-4.25-4.25 1.9028-4.25 4.25-4.25zm0-1.5c-3.1756 0-5.75 2.5744-5.75 5.75s2.5744 5.75 5.75 5.75 5.75-2.5744 5.75-5.75c0-3.1756-2.5744-5.75-5.75-5.75z" transform="translate(433.8216 183.7381)"/><circle cx="443.9294" cy="171.048" fill="#66c2a5" r="5"/><path d="m0-4.25c2.3472 0 4.25 1.9028 4.25 4.25 0 2.3472-1.9028 4.25-4.25 4.25s-4.25-1.9028-4.25-4.25 1.9028-4.25 4.25-4.25zm0-1.5c-3.1756 0-5.75 2.5744-5.75 5.75s2.5744 5.75 5.75 5.75 5.75-2.5744 5.75-5.75c0-3.1756-2.5744-5.75-5.75-5.75z" transform="translate(443.9294 171.048)"/><circle cx="450.9081" cy="164.1838" fill="#66c2a5" r="5"/><path d="m0-4.25c2.3472 0 4.25 1.9028 4.25 4.25 0 2.3472-1.9028 4.25-4.25 4.25s-4.25-1.9028-4.25-4.25 1.9028-4.25 4.25-4.25zm0-1.5c-3.1756 0-5.75 2.5744-5.75 5.75s2.5744 5.75 5.75 5.75 5.75-2.5744 5.75-5.75c0-3.1756-2.5744-5.75-5.75-5.75z" transform="translate(450.9081 164.1838)"/><circle cx="458.7791" cy="156.8411" fill="#66c2a5" r="5"/><path d="m0-4.25c2.3472 0 4.25 1.9028 4.25 4.25 0 2.3472-1.9028 4.25-4.25 4.25s-4.25-1.9028-4.25-4.25 1.9028-4.25 4.25-4.25zm0-1.5c-3.1756 0-5.75 2.5744-5.75 5.75s2.5744 5.75 5.75 5.75 5.75-2.5744 5.75-5.75c0-3.1756-2.5744-5.75-5.75-5.75z" transform="translate(458.7791 156.8411)"/><circle cx="468.2439" cy="150.3001" fill="#66c2a5" r="5"/><path d="m0-4.25c2.3472 0 4.25 1.9028 4.25 4.25 0 2.3472-1.9028 4.25-4.25 4.25s-4.25-1.9028-4.25-4.25 1.9028-4.25 4.25-4.25zm0-1.5c-3.1756 0-5.75 2.5744-5.75 5.75s2.5744 5.75 5.75 5.75 5.75-2.5744 5.75-5.75c0-3.1756-2.5744-5.75-5.75-5.75z" transform="translate(468.2439 150.3001)"/><circle cx="476.5168" cy="139.2029" fill="#66c2a5" r="5"/><path d="m0-4.25c2.3472 0 4.25 1.9028 4.25 4.25 0 2.3472-1.9028 4.25-4.25 4.25s-4.25-1.9028-4.25-4.25 1.9028-4.25 4.25-4.25zm0-1.5c-3.1756 0-5.75 2.5744-5.75 5.75s2.5744 5.75 5.75 5.75 5.75-2.5744 5.75-5.75c0-3.1756-2.5744-5.75-5.75-5.75z" transform="translate(476.5168 139.2029)"/><circle cx="482.015" cy="134.6475" fill="#66c2a5" r="5"/><path d="m0-4.25c2.3472 0 4.25 1.9028 4.25 4.25 0 2.3472-1.9028 4.25-4.25 4.25s-4.25-1.9028-4.25-4.25 1.9028-4.25 4.25-4.25zm0-1.5c-3.1756 0-5.75 2.5744-5.75 5.75s2.5744 5.75 5.75 5.75 5.75-2.5744 5.75-5.75c0-3.1756-2.5744-5.75-5.75-5.75z" transform="translate(482.015 134.6475)"/><circle cx="490.3739" cy="129.1767" fill="#66c2a5" r="5"/><path d="m0-4.25c2.3472 0 4.25 1.9028 4.25 4.25 0 2.3472-1.9028 4.25-4.25 4.25s-4.25-1.9028-4.25-4.25 1.9028-4.25 4.25-4.25zm0-1.5c-3.1756 0-5.75 2.5744-5.75 5.75s2.5744 5.75 5.75 5.75 5.75-2.5744 5.75-5.75c0-3.1756-2.5744-5.75-5.75-5.75z" transform="translate(490.3739 129.1767)"/><circle cx="496.998" cy="119.9082" fill="#66c2a5" r="5"/><path d="m0-4.25c2.3472 0 4.25 1.9028 4.25 4.25 0 2.3472-1.9028 4.25-4.25 4.25s-4.25-1.9028-4.25-4.25 1.9028-4.25 4.25-4.25zm0-1.5c-3.1756 0-5.75 2.5744-5.75 5.75s2.5744 5.75 5.75 5.75 5.75-2.5744 5.75-5.75c0-3.1756-2.5744-5.75-5.75-5.75z" transform="translate(496.998 119.9082)"/><circle cx="505.2544" cy="114.2595" fill="#66c2a5" r="5"/><path d="m0-4.25c2.3472 0 4.25 1.9028 4.25 4.25 0 2.3472-1.9028 4.25-4.25 4.25s-4.25-1.9028-4.25-4.25 1.9028-4.25 4.25-4.25zm0-1.5c-3.1756 0-5.75 2.5744-5.75 5.75s2.5744 5.75 5.75 5.75 5.75-2.5744 5.75-5.75c0-3.1756-2.5744-5.75-5.75-5.75z" transform="translate(505.2544 114.2595)"/><circle cx="324.6429" cy="111.8995" fill="#fc8d62" r="5"/><path d="m0-4.25c2.3472 0 4.25 1.9028 4.25 4.25 0 2.3472-1.9028 4.25-4.25 4.25s-4.25-1.9028-4.25-4.25 1.9028-4.25 4.25-4.25zm0-1.5c-3.1756 0-5.75 2.5744-5.75 5.75s2.5744 5.75 5.75 5.75 5.75-2.5744 5.75-5.75c0-3.1756-2.5744-5.75-5.75-5.75z" transform="translate(324.6429 111.8995)"/><circle cx="332.4465" cy="121.6609" fill="#fc8d62" r="5"/><path d="m0-4.25c2.3472 0 4.25 1.9028 4.25 4.25 0 2.3472-1.9028 4.25-4.25 4.25s-4.25-1.9028-4.25-4.25 1.9028-4.25 4.25-4.25zm0-1.5c-3.1756 0-5.75 2.5744-5.75 5.75s2.5744 5.75 5.75 5.75 5.75-2.5744 5.75-5.75c0-3.1756-2.5744-5.75-5.75-5.75z" transform="translate(332.4465 121.6609)"/><circle cx="341.3087" cy="127.2329" fill="#fc8d62" r="5"/><path d="m0-4.25c2.3472 0 4.25 1.9028 4.25 4.25 0 2.3472-1.9028 4.25-4.25 4.25s-4.25-1.9028-4.25-4.25 1.9028-4.25 4.25-4.25zm0-1.5c-3.1756 0-5.75 2.5744-5.75 5.75s2.5744 5.75 5.75 5.75 5.75-2.5744 5.75-5.75c0-3.1756-2.5744-5.75-5.75-5.75z" transform="translate(341.3087 127.2329)"/><circle cx="348.9485" cy="135.718" fill="#fc8d62" r="5"/><path d="m0-4.25c2.3472 0 4.25 1.9028 4.25 4.25 0 2.3472-1.9028 4.25-4.25 4.25s-4.25-1.9028-4.25-4.25 1.9028-4.25 4.25-4.25zm0-1.5c-3.1756 0-5.75 2.5744-5.75 5.75s2.5744 5.75 5.75 5.75 5.75-2.5744 5.75-5.75c0-3.1756-2.5744-5.75-5.75-5.75z" transform="translate(348.9485 135.718)"/><circle cx="353.4078" cy="142.2045" fill="#fc8d62" r="5"/><path d="m0-4.25c2.3472 0 4.25 1.9028 4.25 4.25 0 2.3472-1.9028 4.25-4.25 4.25s-4.25-1.9028-4.25-4.25 1.9028-4.25 4.25-4.25zm0-1.5c-3.1756 0-5.75 2.5744-5.75 5.75s2.5744 5.75 5.75 5.75 5.75-2.5744 5.75-5.75c0-3.1756-2.5744-5.75-5.75-5.75z" transform="translate(353.4078 142.2045)"/><circle cx="360.6506" cy="152.1913" fill="#fc8d62" r="5"/><path d="m0-4.25c2.3472 0 4.25 1.9028 4.25 4.25 0 2.3472-1.9028 4.25-4.25 4.25s-4.25-1.9028-4.25-4.25 1.9028-4.25 4.25-4.25zm0-1.5c-3.1756 0-5.75 2.5744-5.75 5.75s2.5744 5.75 5.75 5.75 5.75-2.5744 5.75-5.75c0-3.1756-2.5744-5.75-5.75-5.75z" transform="translate(360.6506 152.1913)"/><circle cx="374.7232" cy="158.4141" fill="#fc8d62" r="5"/><path d="m0-4.25c2.3472 0 4.25 1.9028 4.25 4.25 0 2.3472-1.9028 4.25-4.25 4.25s-4.25-1.9028-4.25-4.25 1.9028-4.25 4.25-4.25zm0-1.5c-3.1756 0-5.75 2.5744-5.75 5.75s2.5744 5.75 5.75 5.75 5.75-2.5744 5.75-5.75c0-3.1756-2.5744-5.75-5.75-5.75z" transform="translate(374.7232 158.4141)"/><circle cx="376.0346" cy="163.7477" fill="#fc8d62" r="5"/><path d="m0-4.25c2.3472 0 4.25 1.9028 4.25 4.25 0 2.3472-1.9028 4.25-4.25 4.25s-4.25-1.9028-4.25-4.25 1.9028-4.25 4.25-4.25zm0-1.5c-3.1756 0-5.75 2.5744-5.75 5.75s2.5744 5.75 5.75 5.75 5.75-2.5744 5.75-5.75c0-3.1756-2.5744-5.75-5.75-5.75z" transform="translate(376.0346 163.7477)"/><circle cx="386.0652" cy="174.8177" fill="#fc8d62" r="5"/><path d="m0-4.25c2.3472 0 4.25 1.9028 4.25 4.25 0 2.3472-1.9028 4.25-4.25 4.25s-4.25-1.9028-4.25-4.25 1.9028-4.25 4.25-4.25zm0-1.5c-3.1756 0-5.75 2.5744-5.75 5.75s2.5744 5.75 5.75 5.75 5.75-2.5744 5.75-5.75c0-3.1756-2.5744-5.75-5.75-5.75z" transform="translate(386.0652 174.8177)"/><circle cx="391.8786" cy="183.3786" fill="#fc8d62" r="5"/><path d="m0-4.25c2.3472 0 4.25 1.9028 4.25 4.25 0 2.3472-1.9028 4.25-4.25 4.25s-4.25-1.9028-4.25-4.25 1.9028-4.25 4.25-4.25zm0-1.5c-3.1756 0-5.75 2.5744-5.75 5.75s2.5744 5.75 5.75 5.75 5.75-2.5744 5.75-5.75c0-3.1756-2.5744-5.75-5.75-5.75z" transform="translate(391.8786 183.3786)"/><circle cx="402.3218" cy="186.3699" fill="#fc8d62" r="5"/><path d="m0-4.25c2.3472 0 4.25 1.9028 4.25 4.25 0 2.3472-1.9028 4.25-4.25 4.25s-4.25-1.9028-4.25-4.25 1.9028-4.25 4.25-4.25zm0-1.5c-3.1756 0-5.75 2.5744-5.75 5.75s2.5744 5.75 5.75 5.75 5.75-2.5744 5.75-5.75c0-3.1756-2.5744-5.75-5.75-5.75z" transform="translate(402.3218 186.3699)"/><circle cx="407.0333" cy="196.6497" fill="#fc8d62" r="5"/><path d="m0-4.25c2.3472 0 4.25 1.9028 4.25 4.25 0 2.3472-1.9028 4.25-4.25 4.25s-4.25-1.9028-4.25-4.25 1.9028-4.25 4.25-4.25zm0-1.5c-3.1756 0-5.75 2.5744-5.75 5.75s2.5744 5.75 5.75 5.75 5.75-2.5744 5.75-5.75c0-3.1756-2.5744-5.75-5.75-5.75z" transform="translate(407.0333 196.6497)"/><circle cx="413.3852" cy="201.9647" fill="#fc8d62" r="5"/><path d="m0-4.25c2.3472 0 4.25 1.9028 4.25 4.25 0 2.3472-1.9028 4.25-4.25 4.25s-4.25-1.9028-4.25-4.25 1.9028-4.25 4.25-4.25zm0-1.5c-3.1756 0-5.75 2.5744-5.75 5.75s2.5744 5.75 5.75 5.75 5.75-2.5744 5.75-5.75c0-3.1756-2.5744-5.75-5.75-5.75z" transform="translate(413.3852 201.9647)"/><circle cx="425.6909" cy="209.4717" fill="#fc8d62" r="5"/><path d="m0-4.25c2.3472 0 4.25 1.9028 4.25 4.25 0 2.3472-1.9028 4.25-4.25 4.25s-4.25-1.9028-4.25-4.25 1.9028-4.25 4.25-4.25zm0-1.5c-3.1756 0-5.75 2.5744-5.75 5.75s2.5744 5.75 5.75 5.75 5.75-2.5744 5.75-5.75c0-3.1756-2.5744-5.75-5.75-5.75z" transform="translate(425.6909 209.4717)"/><circle cx="428.4939" cy="217.7945" fill="#fc8d62" r="5"/><path d="m0-4.25c2.3472 0 4.25 1.9028 4.25 4.25 0 2.3472-1.9028 4.25-4.25 4.25s-4.25-1.9028-4.25-4.25 1.9028-4.25 4.25-4.25zm0-1.5c-3.1756 0-5.75 2.5744-5.75 5.75s2.5744 5.75 5.75 5.75 5.75-2.5744 5.75-5.75c0-3.1756-2.5744-5.75-5.75-5.75z" transform="translate(428.4939 217.7945)"/><circle cx="438.9331" cy="230.3325" fill="#fc8d62" r="5"/><path d="m0-4.25c2.3472 0 4.25 1.9028 4.25 4.25 0 2.3472-1.9028 4.25-4.25 4.25s-4.25-1.9028-4.25-4.25 1.9028-4.25 4.25-4.25zm0-1.5c-3.1756 0-5.75 2.5744-5.75 5.75s2.5744 5.75 5.75 5.75 5.75-2.5744 5.75-5.75c0-3.1756-2.5744-5.75-5.75-5.75z" transform="translate(438.9331 230.3325)"/><circle cx="444.3202" cy="234.2469" fill="#fc8d62" r="5"/><path d="m0-4.25c2.3472 0 4.25 1.9028 4.25 4.25 0 2.3472-1.9028 4.25-4.25 4.25s-4.25-1.9028-4.25-4.25 1.9028-4.25 4.25-4.25zm0-1.5c-3.1756 0-5.75 2.5744-5.75 5.75s2.5744 5.75 5.75 5.75 5.75-2.5744 5.75-5.75c0-3.1756-2.5744-5.75-5.75-5.75z" transform="translate(444.3202 234.2469)"/><circle cx="453.2835" cy="237.658" fill="#fc8d62" r="5"/><path d="m0-4.25c2.3472 0 4.25 1.9028 4.25 4.25 0 2.3472-1.9028 4.25-4.25 4.25s-4.25-1.9028-4.25-4.25 1.9028-4.25 4.25-4.25zm0-1.5c-3.1756 0-5.75 2.5744-5.75 5.75s2.5744 5.75 5.75 5.75 5.75-2.5744 5.75-5.75c0-3.1756-2.5744-5.75-5.75-5.75z" transform="translate(453.2835 237.658)"/><circle cx="460.2497" cy="245.9306" fill="#fc8d62" r="5"/><path d="m0-4.25c2.3472 0 4.25 1.9028 4.25 4.25 0 2.3472-1.9028 4.25-4.25 4.25s-4.25-1.9028-4.25-4.25 1.9028-4.25 4.25-4.25zm0-1.5c-3.1756 0-5.75 2.5744-5.75 5.75s2.5744 5.75 5.75 5.75 5.75-2.5744 5.75-5.75c0-3.1756-2.5744-5.75-5.75-5.75z" transform="translate(460.2497 245.9306)"/><circle cx="467.8164" cy="254.211" fill="#fc8d62" r="5"/><path d="m0-4.25c2.3472 0 4.25 1.9028 4.25 4.25 0 2.3472-1.9028 4.25-4.25 4.25s-4.25-1.9028-4.25-4.25 1.9028-4.25 4.25-4.25zm0-1.5c-3.1756 0-5.75 2.5744-5.75 5.75s2.5744 5.75 5.75 5.75 5.75-2.5744 5.75-5.75c0-3.1756-2.5744-5.75-5.75-5.75z" transform="translate(467.8164 254.211)"/><circle cx="473.3652" cy="263.6763" fill="#fc8d62" r="5"/><path d="m0-4.25c2.3472 0 4.25 1.9028 4.25 4.25 0 2.3472-1.9028 4.25-4.25 4.25s-4.25-1.9028-4.25-4.25 1.9028-4.25 4.25-4.25zm0-1.5c-3.1756 0-5.75 2.5744-5.75 5.75s2.5744 5.75 5.75 5.75 5.75-2.5744 5.75-5.75c0-3.1756-2.5744-5.75-5.75-5.75z" transform="translate(473.3652 263.6763)"/><circle cx="480.9641" cy="270.2028" fill="#fc8d62" r="5"/><path d="m0-4.25c2.3472 0 4.25 1.9028 4.25 4.25 0 2.3472-1.9028 4.25-4.25 4.25s-4.25-1.9028-4.25-4.25 1.9028-4.25 4.25-4.25zm0-1.5c-3.1756 0-5.75 2.5744-5.75 5.75s2.5744 5.75 5.75 5.75 5.75-2.5744 5.75-5.75c0-3.1756-2.5744-5.75-5.75-5.75z" transform="translate(480.9641 270.2028)"/><circle cx="487.7502" cy="277.2607" fill="#fc8d62" r="5"/><path d="m0-4.25c2.3472 0 4.25 1.9028 4.25 4.25 0 2.3472-1.9028 4.25-4.25 4.25s-4.25-1.9028-4.25-4.25 1.9028-4.25 4.25-4.25zm0-1.5c-3.1756 0-5.75 2.5744-5.75 5.75s2.5744 5.75 5.75 5.75 5.75-2.5744 5.75-5.75c0-3.1756-2.5744-5.75-5.75-5.75z" transform="translate(487.7502 277.2607)"/><circle cx="497.7871" cy="286.3493" fill="#fc8d62" r="5"/><path d="m0-4.25c2.3472 0 4.25 1.9028 4.25 4.25 0 2.3472-1.9028 4.25-4.25 4.25s-4.25-1.9028-4.25-4.25 1.9028-4.25 4.25-4.25zm0-1.5c-3.1756 0-5.75 2.5744-5.75 5.75s2.5744 5.75 5.75 5.75 5.75-2.5744 5.75-5.75c0-3.1756-2.5744-5.75-5.75-5.75z" transform="translate(497.7871 286.3493)"/><circle cx="507" cy="294.4319" fill="#fc8d62" r="5"/><path d="m0-4.25c2.3472 0 4.25 1.9028 4.25 4.25 0 2.3472-1.9028 4.25-4.25 4.25s-4.25-1.9028-4.25-4.25 1.9028-4.25 4.25-4.25zm0-1.5c-3.1756 0-5.75 2.5744-5.75 5.75s2.5744 5.75 5.75 5.75 5.75-2.5744 5.75-5.75c0-3.1756-2.5744-5.75-5.75-5.75z" transform="translate(507 294.4319)"/></g></g></svg>